<?xml version="1.0" encoding="utf-8"?>
<!DOCTYPE svg PUBLIC "-//W3C//DTD SVG 1.1//EN" "http://www.w3.org/Graphics/SVG/1.1/DTD/svg11.dtd" [
	<!ENTITY st0 "fill:none;stroke:#777777;stroke-width:1.1339;stroke-linejoin:round;stroke-miterlimit:10;">
	<!ENTITY st1 "fill:#EEEEEE;">
	<!ENTITY st2 "font-size:9px;">
	<!ENTITY st4 "fill:none;stroke:#FFFFFF;stroke-width:0.2835;stroke-miterlimit:10;">
	<!ENTITY st5 "font-family:'ArialMT','Arial',sans-serif;">
	<!ENTITY st6 "fill:#00B700;">
	<!ENTITY st10 "stroke:#EEEEEE;stroke-width:0.5669;stroke-miterlimit:10;">
]>
<svg version="1.1" xmlns="http://www.w3.org/2000/svg" xmlns:xlink="http://www.w3.org/1999/xlink" x="0px" y="0px" width="597.74px" height="558.55px" viewBox="0 0 597.74 558.55" xml:space="preserve">
<title>Company/Facility Directory status</title>
<desc>Map showing status overview of the progress on location descriptions
for the "Company/Facility Directory" project, created 2022 by nautofon.
Reuse is allowed under the terms of CC BY-NC-SA 4.0.
You may copy, modify and share this map, but you must always
clearly acknowledge "nautofon" as the original author.</desc>
<metadata>
	<rdf:RDF xmlns:rdf="http://www.w3.org/1999/02/22-rdf-syntax-ns#" xmlns:dc="http://purl.org/dc/elements/1.1/" xmlns:cc="http://creativecommons.org/ns#">
		<cc:Work rdf:about="">
			<dc:creator xlink:href="https://truck-simulator.fandom.com/wiki/User:Nautofon">
				<cc:Agent>
					<dc:title>nautofon</dc:title>
				</cc:Agent>
			</dc:creator>
			<dc:date>2022-11-10</dc:date>
			<cc:license rdf:resource="http://creativecommons.org/licenses/by-nc-sa/4.0/"/>
		</cc:Work>
		<cc:License rdf:about="http://creativecommons.org/licenses/by-nc-sa/4.0/">
			<cc:permits rdf:resource="http://creativecommons.org/ns#Reproduction" />
			<cc:permits rdf:resource="http://creativecommons.org/ns#Distribution" />
			<cc:requires rdf:resource="http://creativecommons.org/ns#Notice" />
			<cc:requires rdf:resource="http://creativecommons.org/ns#Attribution" />
			<cc:prohibits rdf:resource="http://creativecommons.org/ns#CommercialUse" />
			<cc:permits rdf:resource="http://creativecommons.org/ns#DerivativeWorks" />
			<cc:requires rdf:resource="http://creativecommons.org/ns#ShareAlike" />
		</cc:License>
	</rdf:RDF>
</metadata>
<symbol id="all" viewBox="-4.25 -4.25 8.5 8.5">
	<path style="&st6;" d="M4.25,0c0-2.35-1.9-4.25-4.25-4.25c-2.35,0-4.25,1.9-4.25,4.25S-2.35,4.25,0,4.25C2.35,4.25,4.25,2.35,4.25,0z"/>
	<path style="&st4;" d="M3.69,0c0-2.04-1.65-3.69-3.69-3.69S-3.68-2.04-3.68,0S-2.04,3.69,0,3.69S3.69,2.04,3.69,0z"/>
</symbol>
<symbol id="cleanup" viewBox="-4.25 -4.25 8.5 8.5">
	<rect x="-3" y="-3" width="6" height="6" transform="rotate(45)" style="fill:orange"/>
</symbol>
<symbol id="open" viewBox="-4.25 -4.25 8.5 8.5">
	<rect x="-2" y="-2" width="4" height="4" style="fill:#777"/>
</symbol>
<symbol id="TODO" viewBox="-4.25 -4.25 8.5 8.5">
	<rect x="-2" y="-2" width="4" height="4" style="fill:red"/>
</symbol>
<g id="map">
	<rect width="597.74" height="558.55"/>
	<text id="made_by_nautofon" transform="matrix(1 0 0 1 15.00 410.00)" style="font-family:'ArialMT','Arial',sans-serif;fill:#020202;font-size:9px;">by nautofon</text>
	<path style="&st0;" d="M77.47,0l10.16,14.75c81.55,25.39,184,46.31,282.83,51.61 0 0 55.799 2.7867 88.427 2.4874v-7.7828h4.7894l2.694 11.076 4.7894 3.5921 22.75 3.8914 14.368 5.3881 10.178-2.9934 17.362 4.4901-13.47 7.1841-18.858 18.559 0.29934 2.3947"/>
	<line style="&st0;" x1="338.27" y1="64.1" x2="324.45" y2="227.16"/>
	<polyline style="&st0;" points="87.56,164.04 71.25,225.62 139.25,321.25"/>
	<polyline style="&st0;" points="176.67,185.49 153.75,301.12 152.62,301.62 150.88,304.38 146.5,301.12 143.25,300.75 141.25,302.75 142.12,305.88 140.75,312.62 140.75,318 139.25,321.25 139.12,326.5 140.25,332 143.25,338.88 137.62,342 134.62,351 130.38,355 130.25,361.88 132.62,364.88 130.25,368.38 86.75,362.88"/>
	<polyline style="&st0;" points="50.81,0 52,7.12 70.25,22.88 77.25,22.25 75.5,10 67.22,0"/>
	<path style="&st0;" d="m89.39 15.3-0.39 7.45-1.38 10.75-3 12.5-1.12 3.38-1.38 2.87-0.87-0.13 1.75-17.87-2.5-1.08-3.21-1.92-13.96-10.33-2.83 3.08 0.75 9.33-1.08 19.34-3.42 14.95-19.13 45.26-9.62 16.74v17l-5.12 16.88-8.26 14.75 4.63 13.37-3 16.26 6.5 19.5 5 8.74-1.87 4.88 4.74 29.75 10 24.75-1 11.12 1.26 3.63 3.37 4.75 13.13 5.62 4 6.13 8.24 2.75 0.5 9.5 4.26 3.25 11.74 12.63 0.63 8 2.75 19.37 11.25 46.13 9.1773 7.7543 10.54 17.833-2.6075 8.6048-8.344 5.9973-7.0403-2.6075-1.5645 1.3038 8.6048 14.341 13.559 12.516 3.129-1.5645 19.035 20.599-3.129 25.814 21.642 19.574"/>
	<path style="&st0;" d="m180.18 558.79-1.5645-3.9113-7.8225-2.6075-11.734-50.846-16.688-26.857-1.043-13.82-3.129-0.26075-1.2282-7.4126-15.09-23.953-4.13-9.37 1.5-15.63-0.87-10.24 4.87-7.38 8.25 7.25 6.25 0.37 10.87 10.5-2 7.76 3.26 16.24 6.9973 17.413-0.68741 6.3696 15.645 23.989 9.387 2.8683 2.3468 15.906 17.21 17.47-4.172 12.777 2.8683 5.4758 14.602 9.9085 10.169 17.749"/>
	<path style="&st0;" d="m127.87 368.07-2.25 3.31 22.26 14.37 37.62 21.87 48.5 7.55 1.29-8.55 29.38 3.55 4.95 7.45 9.5 8.63 4.68 4.93 4.4637 4.3579 8.6808 23.049 22.75 14.668 12.273-15.566 9.9887-0.32321 21.93 21.149 4.6656 6.4051 4.8305 15.362 17.624 30.7 28.183 10.36 9.7654 0.57701 1.2018-4.926-4.7006-11.674-1.6833-11.626 3.5227-11.123 10.338-11.353 17.362-8.3815 16.902-15.012 14.229-5.6419 11.375-1.796 13.171 4.4901 14.967-3.5921 14.368 10.477 12.872-0.29934 6.5855-4.1908 6.8848 2.3947 2.694-2.9934-3.8914-3.5921-0.29934-8.0822-2.9934-5.3881 6.8848-4.1908 13.47-2.3947 15.53 0.89802"/>
	<line style="&st0;" x1="248.23" y1="217.87" x2="220.3" y2="413.04"/>
	<path style="&st0;" d="M28,146.62c47.23,15.27,136.03,38.56,192.86,46.85"/>
	<path style="&st0;" d="M156.95 284.97c69.54 14.18 151.01 23.87 213.51 26.94 0 0 58.194 2.3955 99.503 1.7969"/>
	<path style="&st0;" d="M331.36,145.12c-18.79-1.34-74.68-8.56-100.24-12.88l-13.5,80.5c41,7.71,102.37,14.82,137.04,16.75l-4.92,81.2"/>
	<polyline style="&st0;" points="334.01,309.54 326.12,411.12 295.42,408.42 263.42,405.25 263.42,407.17 264.67,410.17"/>
	<path style="&st0;" d="m333.16 320.64 24.461 1.6435 24.63 1.2764-1.4967 38.332 6.5855 4.1908 4.4901-1.1974 2.3947 4.4901 10.477 2.694 7.7828-0.29934 2.0954 5.0888 5.3881-1.796 8.0822 4.4901 3.5921-2.694 2.9934 3.2927 5.9868-1.4967 2.0954 1.4967 5.3881-2.694h10.477l2.9934-1.1974 11.974 5.3881"/>
	<path style="&st0;" d="m353.22 249.65c31.131 2.0954 85.611 3.5921 105.67 2.9934"/>
	<path style="&st0;" d="m327.78 186.49c34.125 2.9934 81.42 4.7894 81.42 4.7894l8.9802 4.7894 1.796-1.1974 8.9802 0.29934 7.1841 4.1907 2.0954 2.3947 2.9934 0.59868"/>
	<path style="&st0;" d="m332.87 126.32c24.246 2.0954 77.529 5.3881 107.16 3.8914"/>
	<polyline style="&st0;" points="165.33,35.93 153,89.38 153.75,92.5 152.5,96.5 155,101 157.08,103.17 157.17,106.58 154.75,109.25 148.67,119.5 144.5,122.75 141.75,126.33 140.83,129.83 143.33,132.17 143.42,135.33 141.12,139.88 132.49,175.53"/>
	<polyline style="&st0;" points="178.29,38.93 174.75,60.75 177.08,66.33 176,70.17 177.92,74 180.83,76.5 184.67,86.75 187.75,90.67 191.67,91.83 187,100.67 187,106.08 185.25,107.42 184.25,112.42 186.33,114.92 189.75,113.25 191.75,110.67 193.25,111.58 194.42,114.67 194.58,121.25 196.75,124.42 196.5,129.42 197.17,131.25 200.08,132.42 202.75,141.17 205.92,139.08 210.42,140.58 211.42,138.92 218.08,141.42 222.33,141.5 225.33,137.83 226.92,138.92 227.25,141.25 229.32,143.01"/>
	<polyline style="&st0;" points="57.53,64.23 64.38,66.25 67.92,69.75 71.17,72 72,75.75 71.83,82.42 77.17,85.08 87.5,84.92 91.67,86.92 93.67,88.83 98.5,88.75 100.67,87.92 106.25,90.17 112.25,89.42 115.33,88.5 118.67,90.42 124.17,89.5 152.5,96.5"/>
	<path style="&st0;" d="m431.05 68.847 1.4967 5.3881-0.59868 12.572 2.9934 8.3815 2.3947 23.049 2.9934 8.6808-0.59868 5.9868-2.9934 2.694-1.1973 2.694 1.796 3.2927 2.694 1.796 1.1974 38.016-2.0954 0.29934-0.29933 5.3881 2.3947 3.2927-2.3947 7.4835 2.0954 2.6941 2.0954 9.5788 2.9934 5.0888 4.1907 16.763-0.29933 5.0888 1.796 5.9868 9.2795 12.572 3.5921 0.29934-2.0954 6.5855 6.8848 9.8782 0.89802 51.187 3.5921 20.954-0.59868 37.717 8.3815 1.1974 0.59868 32.927 9.2795 17.661-3.2927 13.77 0.89801 5.9868-3.8914 5.9868 1.1974 2.694"/>
	<path style="&st0;" d="m440.93 181.4c24.246 0 58.371-1.1974 76.93-1.796"/>
	<path style="&st0;" d="m451.1 240.97 32.029-0.59868 17.661-0.59869 12.273-0.898 5.0888 4.7894"/>
	<path style="&st0;" d="m470.56 322.99h24.246l32.329-1.4967 17.062 0.29934 1.796 2.694-4.7894 5.9868 10.776-0.29934"/>
	<path style="&st0;" d="m481.94 394.83 48.792-2.3947"/>
	<path style="&st0;" d="m428.87 541.7-6.822 16.841"/>
	<path style="&st0;" d="m618.43 128.12-13.17-2.69-1.5 7.78-2.39 2.69-1.2 9.58-2.39-5.69-5.09 4.49-5.69 18.26v8.38l6.88 13.17 .6 12.57-5.39 11.08-5.69 5.09-5.39 .6-2.69-1.5-4.19-9.28-.9-10.78-2.69-9.88 3.89-26.04 5.99-16.46-2.39 .3-8.68 13.47-2.69-1.8 5.39-8.38 6.88-13.47 21.55-8.08 11.38 .9 11.08-3.59-8.08-6.88-8.38-.6-3.89-6.29-24.55 9.88-18.26-8.68 2.99-10.48-33.23 20.65-9.28-6.59-17.06 6.59 .3 11.38-7.18 4.79-.9 3.29 2.69 3.89-.9 15.27 23.05 16.46 .9 8.08 2.1 4.79-1.2 4.19 2.69 6.59 4.79 1.5 8.98 11.08-.3 5.39-2.99 5.99-9.28 2.69-1.2 3.89 3.29 2.39-2.99 8.98-3.59 2.69-1.2 8.98 2.1 6.59 5.99 6.88 4.79 3.29 2.39 7.18 1.5 .9 2.99-1.8 3.29 3.29-3.29 10.48 14.07 10.78 3.59 11.38 4.79 2.39 .6 5.69-5.99 4.19-2.1 9.88-2.1 5.39-2.39 1.8-2.39 6.29 .3 5.69-4.79 5.69-1.8 8.68-4.79 3.29-5.09 12.27 1.8 13.47 .9 2.1-.9 2.99 4.19 9.58-10.48 21.25 .9 4.79 32.03-.6-1.2 6.59 5.69 10.48"/>
	<path style="&st0;" d="m527.74 115.54 2.1 1.2 1.5 3.29 22.15 5.99h5.09l6.59 7.48-1.2 3.89 2.99 .9-.6 2.69 2.39 2.39"/>
	<path style="&st0;" d="m529.23 199.66 41.31-2.99"/>
	<path style="&st0;" d="m576.23 212.53 4.49 46.7-1.2 5.39 2.69 3.89-.6 4.19-5.39 11.67-1.2 8.98-.9 4.49-5.09 3.89 .9 4.19-1.8 1.5-5.39-1.5-3.29-.3-.3 4.49"/>
	<path style="&st0;" d="m575.63 290.96 5.99-.3 3.89-2.1 4.19 2.39 1.2-2.1 6.85-3.44"/>
	<path style="&st0;" d="m554.38 319.69 22.45-1.5v-2.39l20.92-2.62"/>
	<path style="&st0;" d="m543.3 351.12 35.02-2.1 19.42-2.06"/>
	<path style="&st0;" d="m581.92 442.72-3.29-31.13 .9-58.67-.9-3.89"/>
	<path style="&st0;" d="m586.16 210.25 11.59-1.11"/>
	<path style="&st0;" d="m535.62 86.66 4.98-8.85 7.56-4.06 2.4-4.98 3.13-3.32 12.91 3.13 9.22-.18 3.32 2.4 6.27 10.88 12.34 1.11"/>
</g>
<g id="legend" transform="translate(175)">
	<rect x="304.73" y="9.44" style="&st10;" width="87" height="41.12"/>
	<text transform="matrix(1 0 0 1 319.5923 44.5608)" style="&st1; &st5; &st2;">to-do</text>
	<use xlink:href="#open" width="8.5" height="8.5" id="legend-unkown_1_" x="-4.25" y="-4.25" transform="matrix(1 0 0 -1 312.729 42.2266)" style="overflow:visible;"/>
	<text transform="matrix(1 0 0 1 319.5923 32.3207)" style="&st1; &st5; &st2;">not field-checked</text>
	<use xlink:href="#cleanup" width="8.5" height="8.5" id="legend-some_1_" x="-4.25" y="-4.25" transform="matrix(1 0 0 -1 312.729 30.0874)" style="overflow:visible;"/>
	<text transform="matrix(1 0 0 1 319.5933 20.0199)" style="&st1; &st5; &st2;">complete</text>
	<use xlink:href="#all" width="8.5" height="8.5" id="legend-all_1_" x="-4.25" y="-4.25" transform="matrix(1 0 0 -1 312.729 17.7852)" style="overflow:visible;"/>
</g>
<g id="data">
	<g id="AR" transform="translate(101.87 11.382)">
		<use xlink:href="#all" width="8.5" height="8.5" id="el_dorado" transform="translate(401.8 371.4)"/>
		<use xlink:href="#all" width="8.5" height="8.5" id="fayetteville" transform="translate(376.4 322.9)"/>
		<use xlink:href="#all" width="8.5" height="8.5" id="fort_smith" transform="translate(374.7 334.1)"/>
		<use xlink:href="#all" width="8.5" height="8.5" id="harrison" transform="translate(395.6 313.6)"/>
		<use xlink:href="#all" width="8.5" height="8.5" id="hot_springs" transform="translate(390.6 346.1)"/>
		<use xlink:href="#all" width="8.5" height="8.5" id="jonesboro" transform="translate(428.6 320.1)"/>
		<use xlink:href="#all" width="8.5" height="8.5" id="little_rock" transform="translate(406.1 338.6)"/>
		<use xlink:href="#all" width="8.5" height="8.5" id="pine_bluff" transform="translate(416.0 352.3)"/>
		<use xlink:href="#all" width="8.5" height="8.5" id="springdale" transform="translate(375.4 313.2)"/>
		<use xlink:href="#all" width="8.5" height="8.5" id="texarkana_ar" transform="translate(381.6 369.8)"/>
	</g>
	<g id="AZ">
		<use xlink:href="#all" width="8.5" height="8.5" id="camp_verde" x="-4.25" y="-4.25" transform="matrix(1 0 0 -1 181.292 343.25)" style="overflow:visible;"/>
		<use xlink:href="#all" width="8.5" height="8.5" id="clifton" x="-4.25" y="-4.25" transform="matrix(1 0 0 -1 217.8335 375.834)" style="overflow:visible;"/>
		<use xlink:href="#all" width="8.5" height="8.5" id="ehrenberg" x="-4.25" y="-4.25" transform="matrix(1 0 0 -1 140.6665 352.334)" style="overflow:visible;"/>
		<use xlink:href="#all" width="8.5" height="8.5" id="flagstaff" x="-4.25" y="-4.25" transform="matrix(1 0 0 -1 189.417 326)" style="overflow:visible;"/>
		<use xlink:href="#all" width="8.5" height="8.5" id="g_canyon_vlg" x="-4.25" y="-4.25" transform="matrix(1 0 0 -1 182.542 311.125)" style="overflow:visible;"/>
		<use xlink:href="#all" width="8.5" height="8.5" id="holbrook" x="-4.25" y="-4.25" transform="matrix(1 0 0 -1 216.084 338.5)" style="overflow:visible;"/>
		<use xlink:href="#all" width="8.5" height="8.5" id="kayenta" x="-4.25" y="-4.25" transform="matrix(1 0 0 -1 215.0835 303.708)" style="overflow:visible;"/>
		<use xlink:href="#all" width="8.5" height="8.5" id="kingman" x="-4.25" y="-4.25" transform="matrix(1 0 0 -1 151.167 321)" style="overflow:visible;"/>
		<use xlink:href="#all" width="8.5" height="8.5" id="nogales" x="-4.25" y="-4.25" transform="matrix(1 0 0 -1 187.6665 401.667)" style="overflow:visible;"/>
		<use xlink:href="#all" width="8.5" height="8.5" id="page" x="-4.25" y="-4.25" transform="matrix(1 0 0 -1 197.5005 298.667)" style="overflow:visible;"/>
		<use xlink:href="#all" width="8.5" height="8.5" id="phoenix" x="-4.25" y="-4.25" transform="matrix(1 0 0 -1 171.292 362.125)" style="overflow:visible;"/>
		<use xlink:href="#all" width="8.5" height="8.5" id="san_simon" x="-4.25" y="-4.25" transform="matrix(1 0 0 -1 217.4585 392.583)" style="overflow:visible;"/>
		<use xlink:href="#all" width="8.5" height="8.5" id="show_low" x="-4.25" y="-4.25" transform="matrix(1 0 0 -1 210.917 352.25)" style="overflow:visible;"/>
		<use xlink:href="#all" width="8.5" height="8.5" id="sierra_vista" x="-4.25" y="-4.25" transform="matrix(1 0 0 -1 200.6665 402.167)" style="overflow:visible;"/>
		<use xlink:href="#all" width="8.5" height="8.5" id="tucson" x="-4.25" y="-4.25" transform="matrix(1 0 0 -1 190 387)" style="overflow:visible;"/>
		<use xlink:href="#all" width="8.5" height="8.5" id="yuma" x="-4.25" y="-4.25" transform="matrix(1 0 0 -1 136 370.667)" style="overflow:visible;"/>
	</g>
	<g id="CA">
		<use xlink:href="#open" width="8.5" height="8.5" id="bakersfield" x="-4.25" y="-4.25" transform="matrix(1 0 0 -1 70.875 298.874)" style="overflow:visible;"/>
		<use xlink:href="#open" width="8.5" height="8.5" id="barstow" x="-4.25" y="-4.25" transform="matrix(1 0 0 -1 98.125 317.458)" style="overflow:visible;"/>
		<use xlink:href="#open" width="8.5" height="8.5" id="carlsbad" x="-4.25" y="-4.25" transform="matrix(1 0 0 -1 86.1655 345.834)" style="overflow:visible;"/>
		<use xlink:href="#open" width="8.5" height="8.5" id="el_centro" x="-4.25" y="-4.25" transform="matrix(1 0 0 -1 116.499 360.668)" style="overflow:visible;"/>
		<use xlink:href="#open" width="8.5" height="8.5" id="eureka" x="-4.25" y="-4.25" transform="matrix(1 0 0 -1 22.7495 175.875)" style="overflow:visible;"/>
		<use xlink:href="#all" width="8.5" height="8.5" id="fresno" x="-4.25" y="-4.25" transform="matrix(1 0 0 -1 66.4 272.3)" style="overflow:visible;"/>
		<use xlink:href="#all" width="8.5" height="8.5" id="hilt" x="-4.25" y="-4.25" transform="matrix(1 0 0 -1 49.9165 160.5835)" style="overflow:visible;"/>
		<use xlink:href="#all" width="8.5" height="8.5" id="huron" x="-4.25" y="-4.25" transform="matrix(1 0 0 -1 55.2 279.1)" style="overflow:visible;"/>
		<use xlink:href="#open" width="8.5" height="8.5" id="los_angeles" x="-4.25" y="-4.25" transform="matrix(1 0 0 -1 75.6235 333.668)" style="overflow:visible;"/>
		<use xlink:href="#all" width="8.5" height="8.5" id="modesto" x="-4.25" y="-4.25" transform="matrix(1 0 0 -1 56.9 252.3)" style="overflow:visible;"/>
		<use xlink:href="#all" width="8.5" height="8.5" id="oakland" x="-4.25" y="-4.25" transform="matrix(1 0 0 -1 42.2 240.8)" style="overflow:visible;"/>
		<use xlink:href="#open" width="8.5" height="8.5" id="oxnard" x="-4.25" y="-4.25" transform="matrix(1 0 0 -1 64.1675 320.292)" style="overflow:visible;"/>
		<use xlink:href="#all" width="8.5" height="8.5" id="redding" x="-4.25" y="-4.25" transform="matrix(1 0 0 -1 47.4995 180.5)" style="overflow:visible;"/>
		<use xlink:href="#all" width="8.5" height="8.5" id="sacramento" x="-4.25" y="-4.25" transform="matrix(1 0 0 -1 45.124 222.2095)" style="overflow:visible;"/>
		<use xlink:href="#open" width="8.5" height="8.5" id="san_diego" x="-4.25" y="-4.25" transform="matrix(1 0 0 -1 92.3325 357.668)" style="overflow:visible;"/>
		<use xlink:href="#all" width="8.5" height="8.5" id="san_francisc" x="-4.25" y="-4.25" transform="matrix(1 0 0 -1 33.6 236.5)" style="overflow:visible;"/>
		<use xlink:href="#all" width="8.5" height="8.5" id="san_jose" x="-4.25" y="-4.25" transform="matrix(1 0 0 -1 37.7 249.6)" style="overflow:visible;"/>
		<use xlink:href="#all" width="8.5" height="8.5" id="santa_cruz" x="-4.25" y="-4.25" transform="matrix(1 0 0 -1 34.5 259.2)" style="overflow:visible;"/>
		<use xlink:href="#open" width="8.5" height="8.5" id="santa_maria" x="-4.25" y="-4.25" transform="matrix(1 0 0 -1 45.6245 304.75)" style="overflow:visible;"/>
		<use xlink:href="#all" width="8.5" height="8.5" id="stockton" x="-4.25" y="-4.25" transform="matrix(1 0 0 -1 53.1 238.1)" style="overflow:visible;"/>
		<use xlink:href="#all" width="8.5" height="8.5" id="truckee" x="-4.25" y="-4.25" transform="matrix(1 0 0 -1 63.9995 213)" style="overflow:visible;"/>
		<use xlink:href="#open" width="8.5" height="8.5" id="ukiah" x="-4.25" y="-4.25" transform="matrix(1 0 0 -1 25.9995 205.25)" style="overflow:visible;"/>
	</g>
	<g id="CO">
		<use xlink:href="#all" width="8.5" height="8.5" id="alamosa" x="-4.25" y="-4.25" transform="matrix(1 0 0 -1 288.4165 296.1221)" style="overflow:visible;"/>
		<use xlink:href="#all" width="8.5" height="8.5" id="burlington" x="-4.25" y="-4.25" transform="matrix(1 0 0 -1 346.667 263.4971)" style="overflow:visible;"/>
		<use xlink:href="#all" width="8.5" height="8.5" id="colorado_spr" x="-4.25" y="-4.25" transform="matrix(1 0 0 -1 310.6665 268.7886)" style="overflow:visible;"/>
		<use xlink:href="#all" width="8.5" height="8.5" id="denver" x="-4.25" y="-4.25" transform="matrix(1 0 0 -1 308.4165 255.1221)" style="overflow:visible;"/>
		<use xlink:href="#all" width="8.5" height="8.5" id="durango" x="-4.25" y="-4.25" transform="matrix(1 0 0 -1 256.25 295.2886)" style="overflow:visible;"/>
		<use xlink:href="#cleanup" width="8.5" height="8.5" id="fort_collins" x="-4.25" y="-4.25" transform="translate(306.83 233.79) rotate(5)" style="overflow:visible;"/>
		<use xlink:href="#all" width="8.5" height="8.5" id="grand_juncti" x="-4.25" y="-4.25" transform="matrix(1 0 0 -1 252.916 261.1221)" style="overflow:visible;"/>
		<use xlink:href="#all" width="8.5" height="8.5" id="lamar" x="-4.25" y="-4.25" transform="matrix(1 0 0 -1 341.833 288.3721)" style="overflow:visible;"/>
		<use xlink:href="#all" width="8.5" height="8.5" id="montrose" x="-4.25" y="-4.25" transform="matrix(1 0 0 -1 259.833 271.7051)" style="overflow:visible;"/>
		<use xlink:href="#all" width="8.5" height="8.5" id="pueblo" x="-4.25" y="-4.25" transform="matrix(1 0 0 -1 307.333 281.3721)" style="overflow:visible;"/>
		<use xlink:href="#all" width="8.5" height="8.5" id="rangely" x="-4.25" y="-4.25" transform="matrix(1 0 0 -1 251.333 237.1221)" style="overflow:visible;"/>
		<use xlink:href="#all" width="8.5" height="8.5" id="steamboat_sp" x="-4.25" y="-4.25" transform="matrix(1 0 0 -1 280.7495 233.8721)" style="overflow:visible;"/>
		<use xlink:href="#all" width="8.5" height="8.5" id="sterling" x="-4.25" y="-4.25" transform="matrix(1 0 0 -1 331.583 237.2886)" style="overflow:visible;"/>
	</g>
	<g id="ID">
		<use xlink:href="#all" width="8.5" height="8.5" id="boise" x="-4.25" y="-4.25" transform="matrix(1 0 0 -1 156.8745 145.9141)" style="overflow:visible;"/>
		<use xlink:href="#all" width="8.5" height="8.5" id="coeur_dalene" x="-4.25" y="-4.25" transform="matrix(1 0 0 -1 165.3745 65.1641)" style="overflow:visible;"/>
		<use xlink:href="#all" width="8.5" height="8.5" id="grangeville" x="-4.25" y="-4.25" transform="matrix(1 0 0 -1 167.833 100.7056)" style="overflow:visible;"/>
		<use xlink:href="#all" width="8.5" height="8.5" id="idaho_falls" x="-4.25" y="-4.25" transform="matrix(1 0 0 -1 213.6245 156.4141)" style="overflow:visible;"/>
		<use xlink:href="#all" width="8.5" height="8.5" id="ketchum" x="-4.25" y="-4.25" transform="matrix(1 0 0 -1 180.6245 148.0391)" style="overflow:visible;"/>
		<use xlink:href="#all" width="8.5" height="8.5" id="lewiston" x="-4.25" y="-4.25" transform="matrix(1 0 0 -1 159.4995 88.2891)" style="overflow:visible;"/>
		<use xlink:href="#all" width="8.5" height="8.5" id="nampa" x="-4.25" y="-4.25" transform="matrix(1 0 0 -1 146.7495 147.4556)" style="overflow:visible;"/>
		<use xlink:href="#all" width="8.5" height="8.5" id="pocatello" x="-4.25" y="-4.25" transform="matrix(1 0 0 -1 202.2495 171.4141)" style="overflow:visible;"/>
		<use xlink:href="#all" width="8.5" height="8.5" id="salmon" x="-4.25" y="-4.25" transform="matrix(1 0 0 -1 190.2075 125.5391)" style="overflow:visible;"/>
		<use xlink:href="#all" width="8.5" height="8.5" id="sandpoint" x="-4.25" y="-4.25" transform="matrix(1 0 0 -1 169.6245 47.4141)" style="overflow:visible;"/>
		<use xlink:href="#all" width="8.5" height="8.5" id="twin_falls" x="-4.25" y="-4.25" transform="matrix(1 0 0 -1 175.7495 171.1641)" style="overflow:visible;"/>
	</g>
	<g id="KS">
		<use xlink:href="#cleanup" width="8.5" height="8.5" id="colby" transform="translate(360 258.13) rotate(3)"/>
		<use xlink:href="#cleanup" width="8.5" height="8.5" id="dodge_city" transform="translate(379.94 291.74) rotate(3)"/>
		<use xlink:href="#cleanup" width="8.5" height="8.5" id="emporia" transform="translate(440.25 281.26)"/>
		<use xlink:href="#cleanup" width="8.5" height="8.5" id="garden_city" transform="translate(361.72 289.43) rotate(3)"/>
		<use xlink:href="#cleanup" width="8.5" height="8.5" id="hays" transform="translate(388.8 274.59) rotate(2)"/>
		<use xlink:href="#cleanup" width="8.5" height="8.5" id="hutchinson" transform="translate(408.71 286.55) rotate(1)"/>
		<use xlink:href="#cleanup" width="8.5" height="8.5" id="junction_cit" transform="translate(427.03 266.87) rotate(1)"/>
		<use xlink:href="#cleanup" width="8.5" height="8.5" id="kansas_city" transform="translate(458.8 269.14)"/>
		<use xlink:href="#all" width="8.5" height="8.5" id="marysville" transform="translate(433.43 254.13)"/>
		<use xlink:href="#all" width="8.5" height="8.5" id="phillipsburg" transform="translate(389.76 253.16)"/>
		<use xlink:href="#all" width="8.5" height="8.5" id="pittsburg" transform="translate(459.91 299.64)"/>
		<use xlink:href="#cleanup" width="8.5" height="8.5" id="salina_ks" transform="translate(416.65 274.57) rotate(1)"/>
		<use xlink:href="#cleanup" width="8.5" height="8.5" id="topeka" transform="translate(443.85 268.92)"/>
		<use xlink:href="#cleanup" width="8.5" height="8.5" id="wichita" transform="translate(418.02 296.61) rotate(1)"/>
	</g>
	<g id="MT">
		<use xlink:href="#cleanup" width="8.5" height="8.5" id="billings" x="-4.25" y="-4.25" transform="translate(273.49 120.17) rotate(8)" style="overflow:visible;"/>
		<use xlink:href="#cleanup" width="8.5" height="8.5" id="bozeman" x="-4.25" y="-4.25" transform="translate(232 118.83) rotate(10)" style="overflow:visible;"/>
		<use xlink:href="#cleanup" width="8.5" height="8.5" id="butte" x="-4.25" y="-4.25" transform="translate(213.83 110.17) rotate(10)" style="overflow:visible;"/>
		<use xlink:href="#cleanup" width="8.5" height="8.5" id="glasgow_mt" x="-4.25" y="-4.25" transform="translate(302.5 76.5) rotate(7)" style="overflow:visible;"/>
		<use xlink:href="#cleanup" width="8.5" height="8.5" id="glendive" x="-4.25" y="-4.25" transform="translate(324.33 103.17) rotate(5)" style="overflow:visible;"/>
		<use xlink:href="#cleanup" width="8.5" height="8.5" id="great_falls" x="-4.25" y="-4.25" transform="translate(239 76.5) rotate(9)" style="overflow:visible;"/>
		<use xlink:href="#cleanup" width="8.5" height="8.5" id="havre" x="-4.25" y="-4.25" transform="translate(263.16 64.33) rotate(9)" style="overflow:visible;"/>
		<use xlink:href="#all" width="8.5" height="8.5" id="helena" x="-4.25" y="-4.25" transform="matrix(1 0 0 -1 226.1655 96.668)" style="overflow:visible;"/>
		<use xlink:href="#all" width="8.5" height="8.5" id="kalispell" x="-4.25" y="-4.25" transform="matrix(1 0 0 -1 196.165 57.168)" style="overflow:visible;"/>
		<use xlink:href="#all" width="8.5" height="8.5" id="laurel" x="-4.25" y="-4.25" transform="matrix(1 0 0 -1 265.665 126.6675)" style="overflow:visible;"/>
		<use xlink:href="#cleanup" width="8.5" height="8.5" id="lewistown" x="-4.25" y="-4.25" transform="translate(260.83 93.84) rotate(9)" style="overflow:visible;"/>
		<use xlink:href="#cleanup" width="8.5" height="8.5" id="miles_city" x="-4.25" y="-4.25" transform="translate(309.33 110.5) rotate(6)" style="overflow:visible;"/>
		<use xlink:href="#cleanup" width="8.5" height="8.5" id="missoula" x="-4.25" y="-4.25" transform="translate(195.33 83.83) rotate(11)" style="overflow:visible;"/>
		<use xlink:href="#cleanup" width="8.5" height="8.5" id="sidney" x="-4.25" y="-4.25" transform="translate(330 89.17) rotate(5)" style="overflow:visible;"/>
		<use xlink:href="#cleanup" width="8.5" height="8.5" id="thompson_f" x="-4.25" y="-4.25" transform="translate(186 69.84) rotate(12)" style="overflow:visible;"/>
	</g>
	<g id="NE" transform="translate(-27.097 -127.5)">
		<use xlink:href="#all" width="8.5" height="8.5" id="alliance" transform="translate(367.3 329.3)"/>
		<use xlink:href="#all" width="8.5" height="8.5" id="chadron" transform="translate(365.2 316.8)"/>
		<use xlink:href="#all" width="8.5" height="8.5" id="columbus" transform="translate(448.8 347.5)"/>
		<use xlink:href="#all" width="8.5" height="8.5" id="grand_island" transform="translate(433.6 356.1)"/>
		<use xlink:href="#all" width="8.5" height="8.5" id="lincoln" transform="translate(457.4 359.9)"/>
		<use xlink:href="#all" width="8.5" height="8.5" id="mccook" transform="translate(399.0 368.0)"/>
		<use xlink:href="#all" width="8.5" height="8.5" id="norfolk" transform="translate(448.5 334.8)"/>
		<use xlink:href="#all" width="8.5" height="8.5" id="north_platte" transform="translate(398.3 350.2)"/>
		<use xlink:href="#all" width="8.5" height="8.5" id="omaha" transform="translate(466.0 352.4)"/>
		<use xlink:href="#all" width="8.5" height="8.5" id="scottsbluff" transform="translate(355.3 334.3)"/>
		<use xlink:href="#all" width="8.5" height="8.5" id="sidney_ne" transform="translate(365.3 346.1)"/>
		<use xlink:href="#all" width="8.5" height="8.5" id="valentine" transform="translate(402.4 319.1)"/>
	</g>
	<g id="NM">
		<use xlink:href="#all" width="8.5" height="8.5" id="alamogordo" x="-4.25" y="-4.25" transform="matrix(1 0 0 -1 278.1665 387.9561)" style="overflow:visible;"/>
		<use xlink:href="#all" width="8.5" height="8.5" id="albuquerque" x="-4.25" y="-4.25" transform="matrix(1 0 0 -1 268.25 344.0381)" style="overflow:visible;"/>
		<use xlink:href="#all" width="8.5" height="8.5" id="artesia" x="-4.25" y="-4.25" transform="matrix(1 0 0 -1 304.6665 393.873)" style="overflow:visible;"/>
		<use xlink:href="#all" width="8.5" height="8.5" id="carlsbad_nm" x="-4.25" y="-4.25" transform="matrix(1 0 0 -1 310.0835 402.79)" style="overflow:visible;"/>
		<use xlink:href="#all" width="8.5" height="8.5" id="clovis" x="-4.25" y="-4.25" transform="matrix(1 0 0 -1 323.6665 363.7891)" style="overflow:visible;"/>
		<use xlink:href="#all" width="8.5" height="8.5" id="farmington" x="-4.25" y="-4.25" transform="matrix(1 0 0 -1 249.916 306.5381)" style="overflow:visible;"/>
		<use xlink:href="#all" width="8.5" height="8.5" id="gallup" x="-4.25" y="-4.25" transform="matrix(1 0 0 -1 238.2495 329.8721)" style="overflow:visible;"/>
		<use xlink:href="#all" width="8.5" height="8.5" id="hobbs" x="-4.25" y="-4.25" transform="matrix(1 0 0 -1 321.25 396.123)" style="overflow:visible;"/>
		<use xlink:href="#all" width="8.5" height="8.5" id="las_cruces" x="-4.25" y="-4.25" transform="matrix(1 0 0 -1 261.4165 399.2061)" style="overflow:visible;"/>
		<use xlink:href="#all" width="8.5" height="8.5" id="raton" x="-4.25" y="-4.25" transform="matrix(1 0 0 -1 310.083 313.9551)" style="overflow:visible;"/>
		<use xlink:href="#all" width="8.5" height="8.5" id="roswell" x="-4.25" y="-4.25" transform="matrix(1 0 0 -1 303.75 381.7891)" style="overflow:visible;"/>
		<use xlink:href="#all" width="8.5" height="8.5" id="santa_fe" x="-4.25" y="-4.25" transform="matrix(1 0 0 -1 285.9995 331.9551)" style="overflow:visible;"/>
		<use xlink:href="#all" width="8.5" height="8.5" id="socorro" x="-4.25" y="-4.25" transform="matrix(1 0 0 -1 264.6665 362.7051)" style="overflow:visible;"/>
		<use xlink:href="#all" width="8.5" height="8.5" id="tucumcari" x="-4.25" y="-4.25" transform="matrix(1 0 0 -1 319.75 346.6221)" style="overflow:visible;"/>
	</g>
	<g id="NV">
		<use xlink:href="#open" width="8.5" height="8.5" id="carson_city" x="-4.25" y="-4.25" transform="translate(83.17 231.83) rotate(15)" style="overflow:visible;"/>
		<use xlink:href="#open" width="8.5" height="8.5" id="elko" x="-4.25" y="-4.25" transform="translate(148 203.12) rotate(12)" style="overflow:visible;"/>
		<use xlink:href="#open" width="8.5" height="8.5" id="ely" x="-4.25" y="-4.25" transform="translate(152.31 237.44) rotate(12)" style="overflow:visible;"/>
		<use xlink:href="#open" width="8.5" height="8.5" id="jackpot" x="-4.25" y="-4.25" transform="translate(164.5 189.17) rotate(12)" style="overflow:visible;"/>
		<use xlink:href="#all" width="8.5" height="8.5" id="las_vegas" x="-4.25" y="-4.25" transform="matrix(1 0 0 -1 141.4985 294.833)" style="overflow:visible;"/>
		<use xlink:href="#open" width="8.5" height="8.5" id="pioche" x="-4.25" y="-4.25" transform="translate(155.5 257.19) rotate(12)" style="overflow:visible;"/>
		<use xlink:href="#all" width="8.5" height="8.5" id="primm" x="-4.25" y="-4.25" transform="matrix(1 0 0 -1 135.4985 305.5)" style="overflow:visible;"/>
		<use xlink:href="#open" width="8.5" height="8.5" id="reno" x="-4.25" y="-4.25" transform="translate(80.33 215) rotate(15)" style="overflow:visible;"/>
		<use xlink:href="#open" width="8.5" height="8.5" id="tonopah" x="-4.25" y="-4.25" transform="translate(109.5 253.75) rotate(14)" style="overflow:visible;"/>
		<use xlink:href="#open" width="8.5" height="8.5" id="winnemucca" x="-4.25" y="-4.25" transform="translate(118 194.12) rotate(14)" style="overflow:visible;"/>
	</g>
	<g id="OK" transform="translate(-4.25 -4.25)">
		<use xlink:href="#all" width="8.5" height="8.5" id="ardmore" transform="translate(428.75 362.24)"/>
		<use xlink:href="#all" width="8.5" height="8.5" id="clinton" transform="translate(397.62 340.36)"/>
		<use xlink:href="#all" width="8.5" height="8.5" id="enid" transform="translate(416.71 323.62)"/>
		<use xlink:href="#all" width="8.5" height="8.5" id="guymon" transform="translate(359.08 316.79)"/>
		<use xlink:href="#all" width="8.5" height="8.5" id="idabel" transform="translate(467.37 372.22)"/>
		<use xlink:href="#all" width="8.5" height="8.5" id="lawton" transform="translate(404.08 359.89)"/>
		<use xlink:href="#all" width="8.5" height="8.5" id="mcalester" transform="translate(452.54 356.07)"/>
		<use xlink:href="#all" width="8.5" height="8.5" id="oklahoma_cit" transform="translate(424.49 344.17)"/>
		<use xlink:href="#all" width="8.5" height="8.5" id="tulsa" transform="translate(445.05 327)"/>
		<use xlink:href="#all" width="8.5" height="8.5" id="woodward" transform="translate(389.84 323.62)"/>
	</g>
	<g id="OR">
		<use xlink:href="#all" width="8.5" height="8.5" id="astoria" x="-4.25" y="-4.25" transform="matrix(1 0 0 -1 61.3979 71.917)" style="overflow:visible;"/>
		<use xlink:href="#open" width="8.5" height="8.5" id="bend" x="-4.25" y="-4.25" transform="translate(83.56 119.38) rotate(16)" style="overflow:visible;"/>
		<use xlink:href="#open" width="8.5" height="8.5" id="burns" x="-4.25" y="-4.25" transform="translate(112.06 136.88) rotate(15)" style="overflow:visible;"/>
		<use xlink:href="#open" width="8.5" height="8.5" id="coos_bay" x="-4.25" y="-4.25" transform="translate(40.23 120.71) rotate(17)" style="overflow:visible;"/>
		<use xlink:href="#open" width="8.5" height="8.5" id="eugene" x="-4.25" y="-4.25" transform="translate(60 111) rotate(17)" style="overflow:visible;"/>
		<use xlink:href="#all" width="8.5" height="8.5" id="klamath_f" x="-4.25" y="-4.25" transform="matrix(1 0 0 -1 66.4995 149.833)" style="overflow:visible;"/>
		<use xlink:href="#open" width="8.5" height="8.5" id="lakeview" x="-4.25" y="-4.25" transform="translate(86.17 157.5) rotate(15)" style="overflow:visible;"/>
		<use xlink:href="#open" width="8.5" height="8.5" id="medford" x="-4.25" y="-4.25" transform="translate(48.5 142.33) rotate(17)" style="overflow:visible;"/>
		<use xlink:href="#open" width="8.5" height="8.5" id="newport" x="-4.25" y="-4.25" transform="translate(49.33 100.5) rotate(17)" style="overflow:visible;"/>
		<use xlink:href="#all" width="8.5" height="8.5" id="ontario" x="-4.25" y="-4.25" transform="matrix(1 0 0 -1 136.9995 134.6665)" style="overflow:visible;"/>
		<use xlink:href="#all" width="8.5" height="8.5" id="pendleton" x="-4.25" y="-4.25" transform="matrix(1 0 0 -1 123.0645 97.5)" style="overflow:visible;"/>
		<use xlink:href="#all" width="8.5" height="8.5" id="portland" x="-4.25" y="-4.25" transform="matrix(1 0 0 -1 68.2495 87.1245)" style="overflow:visible;"/>
		<use xlink:href="#open" width="8.5" height="8.5" id="salem" x="-4.25" y="-4.25" transform="translate(63.75 97.25) rotate(17)" style="overflow:visible;"/>
		<use xlink:href="#open" width="8.5" height="8.5" id="the_dalles" x="-4.25" y="-4.25" transform="translate(88.83 92.83) rotate(16)" style="overflow:visible;"/>
	</g>
	<g id="TX" transform="translate(-63.713 95.304)">
		<use xlink:href="#all" width="8.5" height="8.5" id="abilene" transform="translate(444.21 306.1)"/>
		<use xlink:href="#all" width="8.5" height="8.5" id="amarillo" transform="translate(411.39 249.13)"/>
		<use xlink:href="#all" width="8.5" height="8.5" id="austin" transform="translate(475 349.06)"/>
		<use xlink:href="#all" width="8.5" height="8.5" id="beaumont" transform="translate(539.53 353.12)"/>
		<use xlink:href="#all" width="8.5" height="8.5" id="brownsville" transform="translate(478.5 434.43)"/>
		<use xlink:href="#all" width="8.5" height="8.5" id="corpus_chris" transform="translate(480.34 400.87)"/>
		<use xlink:href="#all" width="8.5" height="8.5" id="dalhart" transform="translate(399.92 230.11)"/>
		<use xlink:href="#all" width="8.5" height="8.5" id="dallas" transform="translate(493.62 295.22)"/>
		<use xlink:href="#all" width="8.5" height="8.5" id="del_rio" transform="translate(421.53 368.24)"/>
		<use xlink:href="#all" width="8.5" height="8.5" id="el_paso" transform="translate(333.03 312.92)"/>
		<use xlink:href="#cleanup" width="8.5" height="8.5" id="fort_stockto" transform="translate(387.42 334.68) rotate(4)"/>
		<use xlink:href="#all" width="8.5" height="8.5" id="fort_worth" transform="translate(479.61 296.88)"/>
		<use xlink:href="#all" width="8.5" height="8.5" id="galveston" transform="translate(523.3 366.58)"/>
		<use xlink:href="#all" width="8.5" height="8.5" id="houston" transform="translate(513.35 355.52)"/>
		<use xlink:href="#all" width="8.5" height="8.5" id="huntsville" transform="translate(510.95 336.16)"/>
		<use xlink:href="#all" width="8.5" height="8.5" id="junction" transform="translate(439.6 346.67)"/>
		<use xlink:href="#all" width="8.5" height="8.5" id="laredo" transform="translate(444.21 407.51)"/>
		<use xlink:href="#all" width="8.5" height="8.5" id="longview_tx" transform="translate(525.7 301.12)"/>
		<use xlink:href="#all" width="8.5" height="8.5" id="lubbock" transform="translate(409.73 282.32)"/>
		<use xlink:href="#all" width="8.5" height="8.5" id="lufkin" transform="translate(525.52 326.75)"/>
		<use xlink:href="#all" width="8.5" height="8.5" id="mcallen" transform="translate(462.09 428.34)"/>
		<use xlink:href="#cleanup" width="8.5" height="8.5" id="odessa" transform="translate(399.4 316.8) rotate(4)"/>
		<use xlink:href="#cleanup" width="8.5" height="8.5" id="san_angelo" transform="translate(432.59 326.38) rotate(3)"/>
		<use xlink:href="#all" width="8.5" height="8.5" id="san_antonio" transform="translate(461.17 367.87)"/>
		<use xlink:href="#all" width="8.5" height="8.5" id="texarkana" transform="translate(535.25 290.84)"/>
		<use xlink:href="#all" width="8.5" height="8.5" id="tyler" transform="translate(516.11 309.42)"/>
		<use xlink:href="#cleanup" width="8.5" height="8.5" id="van_horn" transform="translate(355.7 328.96) rotate(5)"/>
		<use xlink:href="#all" width="8.5" height="8.5" id="victoria" transform="translate(487.17 379.67)"/>
		<use xlink:href="#all" width="8.5" height="8.5" id="waco" transform="translate(486.43 325.28)"/>
		<use xlink:href="#all" width="8.5" height="8.5" id="wichita_fall" transform="translate(464.67 279.37)"/>
	</g>
	<g id="UT">
		<use xlink:href="#all" width="8.5" height="8.5" id="cedar_city" x="-4.25" y="-4.25" transform="matrix(1 0 0 -1 178.2495 269.3726)" style="overflow:visible;"/>
		<use xlink:href="#all" width="8.5" height="8.5" id="logan" x="-4.25" y="-4.25" transform="matrix(1 0 0 -1 209.9995 197.8721)" style="overflow:visible;"/>
		<use xlink:href="#all" width="8.5" height="8.5" id="moab" x="-4.25" y="-4.25" transform="matrix(1 0 0 -1 235.2495 265.1226)" style="overflow:visible;"/>
		<use xlink:href="#all" width="8.5" height="8.5" id="ogden" x="-4.25" y="-4.25" transform="matrix(1 0 0 -1 203.5005 206.2056)" style="overflow:visible;"/>
		<use xlink:href="#cleanup" width="8.5" height="8.5" id="price" x="-4.25" y="-4.25" transform="translate(221.74 240.71) rotate(9)" style="overflow:visible;"/>
		<use xlink:href="#all" width="8.5" height="8.5" id="provo" x="-4.25" y="-4.25" transform="matrix(1 0 0 -1 207.9165 226.7056)" style="overflow:visible;"/>
		<use xlink:href="#all" width="8.5" height="8.5" id="salina" x="-4.25" y="-4.25" transform="matrix(1 0 0 -1 200.166 249.6226)" style="overflow:visible;"/>
		<use xlink:href="#all" width="8.5" height="8.5" id="salt_lake" x="-4.25" y="-4.25" transform="matrix(1 0 0 -1 201.9165 215.7061)" style="overflow:visible;"/>
		<use xlink:href="#cleanup" width="8.5" height="8.5" id="st_george" x="-4.25" y="-4.25" transform="translate(166.83 281.04) rotate(11)" style="overflow:visible;"/>
		<use xlink:href="#all" width="8.5" height="8.5" id="vernal" x="-4.25" y="-4.25" transform="matrix(1 0 0 -1 240.7495 227.7056)" style="overflow:visible;"/>
	</g>
	<g id="WA">
		<use xlink:href="#all" width="8.5" height="8.5" id="aberdeen_wa" x="-4.25" y="-4.25" transform="matrix(1 0 0 -1 65.8745 53.4146)" style="overflow:visible;"/>
		<use xlink:href="#all" width="8.5" height="8.5" id="bellingham" x="-4.25" y="-4.25" transform="matrix(1 0 0 -1 94.9995 23.2896)" style="overflow:visible;"/>
		<use xlink:href="#all" width="8.5" height="8.5" id="colville" x="-4.25" y="-4.25" transform="matrix(1 0 0 -1 151.9995 43.0396)" style="overflow:visible;"/>
		<use xlink:href="#all" width="8.5" height="8.5" id="everett" x="-4.25" y="-4.25" transform="matrix(1 0 0 -1 92.9995 37.2896)" style="overflow:visible;"/>
		<use xlink:href="#all" width="8.5" height="8.5" id="grand_coulee" x="-4.25" y="-4.25" transform="matrix(1 0 0 -1 134.8745 50.2896)" style="overflow:visible;"/>
		<use xlink:href="#all" width="8.5" height="8.5" id="kennewick" x="-4.25" y="-4.25" transform="matrix(1 0 0 -1 123.2495 83.2896)" style="overflow:visible;"/>
		<use xlink:href="#all" width="8.5" height="8.5" id="longview" x="-4.25" y="-4.25" transform="matrix(1 0 0 -1 72.9995 66.2896)" style="overflow:visible;"/>
		<use xlink:href="#all" width="8.5" height="8.5" id="olympia" x="-4.25" y="-4.25" transform="matrix(1 0 0 -1 76.9995 56.5396)" style="overflow:visible;"/>
		<use xlink:href="#all" width="8.5" height="8.5" id="omak" x="-4.25" y="-4.25" transform="matrix(1 0 0 -1 129.1245 40.4146)" style="overflow:visible;"/>
		<use xlink:href="#all" width="8.5" height="8.5" id="port_angeles" x="-4.25" y="-4.25" transform="matrix(1 0 0 -1 72.2495 35.0396)" style="overflow:visible;"/>
		<use xlink:href="#all" width="8.5" height="8.5" id="seattle" x="-4.25" y="-4.25" transform="matrix(1 0 0 -1 90.3745 47.1646)" style="overflow:visible;"/>
		<use xlink:href="#all" width="8.5" height="8.5" id="spokane" x="-4.25" y="-4.25" transform="matrix(1 0 0 -1 153.6245 60.5396)" style="overflow:visible;"/>
		<use xlink:href="#all" width="8.5" height="8.5" id="tacoma" x="-4.25" y="-4.25" transform="matrix(1 0 0 -1 86.8745 56.4146)" style="overflow:visible;"/>
		<use xlink:href="#all" width="8.5" height="8.5" id="vancouver" x="-4.25" y="-4.25" transform="matrix(1 0 0 -1 77.9995 74.6646)" style="overflow:visible;"/>
		<use xlink:href="#all" width="8.5" height="8.5" id="wenatchee" x="-4.25" y="-4.25" transform="matrix(1 0 0 -1 113.4995 58.7896)" style="overflow:visible;"/>
		<use xlink:href="#all" width="8.5" height="8.5" id="yakima" x="-4.25" y="-4.25" transform="matrix(1 0 0 -1 107.1245 73.2896)" style="overflow:visible;"/>
	</g>
	<g id="WY">
		<use xlink:href="#all" width="8.5" height="8.5" id="casper" x="-4.25" y="-4.25" transform="matrix(1 0 0 -1 294.8745 184.875)" style="overflow:visible;"/>
		<use xlink:href="#all" width="8.5" height="8.5" id="cheyenne" x="-4.25" y="-4.25" transform="matrix(1 0 0 -1 319.1245 216.75)" style="overflow:visible;"/>
		<use xlink:href="#cleanup" width="8.5" height="8.5" id="cody" x="-4.25" y="-4.25" transform="translate(261.12 143.38) rotate(8)" style="overflow:visible;"/>
		<use xlink:href="#all" width="8.5" height="8.5" id="evanston" x="-4.25" y="-4.25" transform="matrix(1 0 0 -1 225.7495 206.125)" style="overflow:visible;"/>
		<use xlink:href="#all" width="8.5" height="8.5" id="gillette" x="-4.25" y="-4.25" transform="matrix(1 0 0 -1 312.2495 158.25)" style="overflow:visible;"/>
		<use xlink:href="#all" width="8.5" height="8.5" id="jackson" x="-4.25" y="-4.25" transform="matrix(1 0 0 -1 232.6245 162.75)" style="overflow:visible;"/>
		<use xlink:href="#all" width="8.5" height="8.5" id="laramie" x="-4.25" y="-4.25" transform="matrix(1 0 0 -1 297.2495 210.375)" style="overflow:visible;"/>
		<use xlink:href="#all" width="8.5" height="8.5" id="rawlins" x="-4.25" y="-4.25" transform="matrix(1 0 0 -1 276.6245 200.75)" style="overflow:visible;"/>
		<use xlink:href="#all" width="8.5" height="8.5" id="riverton" x="-4.25" y="-4.25" transform="matrix(1 0 0 -1 265.1245 175.375)" style="overflow:visible;"/>
		<use xlink:href="#all" width="8.5" height="8.5" id="rock_springs" x="-4.25" y="-4.25" transform="matrix(1 0 0 -1 253.2495 205.875)" style="overflow:visible;"/>
		<use xlink:href="#all" width="8.5" height="8.5" id="sheridan" x="-4.25" y="-4.25" transform="matrix(1 0 0 -1 290.9995 147.625)" style="overflow:visible;"/>
	</g>
</g>
</svg>
