<?xml version="1.0" encoding="utf-8"?>
<!DOCTYPE svg PUBLIC "-//W3C//DTD SVG 1.1//EN" "http://www.w3.org/Graphics/SVG/1.1/DTD/svg11.dtd" [
	<!ENTITY st0 "fill:none;stroke:#777777;stroke-width:1.1339;stroke-linejoin:round;stroke-miterlimit:10;">
	<!ENTITY st1 "fill:#EEEEEE;">
	<!ENTITY st2 "font-size:7.5px;">
	<!ENTITY st3 "fill:#FFFFFF;">
	<!ENTITY st4 "fill:none;stroke:#FFFFFF;stroke-width:0.2835;stroke-miterlimit:10;">
	<!ENTITY st5 "font-family:'ArialMT','Arial',sans-serif;">
	<!ENTITY st6 "fill:#00B700;">
	<!ENTITY st7 "display:none;">
	<!ENTITY st8 "fill:#777777;">
	<!ENTITY st9 "fill:#E69000;">
	<!ENTITY st10 "stroke:#EEEEEE;stroke-width:0.5669;stroke-miterlimit:10;">
]>
<svg version="1.1" xmlns="http://www.w3.org/2000/svg" xmlns:xlink="http://www.w3.org/1999/xlink" x="0px" y="0px" width="276.91px" height="322.29px" viewBox="0 0 370.46 431.17" style="enable-background:new 0 0 370.46 431.17;" xml:space="preserve">
<title>Company/Facility Directory status</title>
<desc>Map showing status overview of the progress on location descriptions
for the "Company/Facility Directory" project, created 2022 by nautofon.
Reuse is allowed under the terms of CC BY-NC-SA 4.0.
You may copy, modify and share this map, but you must always
clearly acknowledge "nautofon" as the original author.</desc>
<metadata>
	<rdf:RDF xmlns:rdf="http://www.w3.org/1999/02/22-rdf-syntax-ns#" xmlns:dc="http://purl.org/dc/elements/1.1/" xmlns:cc="http://creativecommons.org/ns#">
		<cc:Work rdf:about="">
			<dc:creator xlink:href="https://truck-simulator.fandom.com/wiki/User:Nautofon">
				<cc:Agent>
					<dc:title>nautofon</dc:title>
				</cc:Agent>
			</dc:creator>
			<dc:date>2022-11-10</dc:date>
			<cc:license rdf:resource="http://creativecommons.org/licenses/by-nc-sa/4.0/"/>
		</cc:Work>
		<cc:License rdf:about="http://creativecommons.org/licenses/by-nc-sa/4.0/">
			<cc:permits rdf:resource="http://creativecommons.org/ns#Reproduction" />
			<cc:permits rdf:resource="http://creativecommons.org/ns#Distribution" />
			<cc:requires rdf:resource="http://creativecommons.org/ns#Notice" />
			<cc:requires rdf:resource="http://creativecommons.org/ns#Attribution" />
			<cc:prohibits rdf:resource="http://creativecommons.org/ns#CommercialUse" />
			<cc:permits rdf:resource="http://creativecommons.org/ns#DerivativeWorks" />
			<cc:requires rdf:resource="http://creativecommons.org/ns#ShareAlike" />
		</cc:License>
	</rdf:RDF>
</metadata>
<symbol id="all" viewBox="-4.25 -4.25 8.5 8.5">
	<path style="&st6;" d="M4.25,0c0-2.35-1.9-4.25-4.25-4.25c-2.35,0-4.25,1.9-4.25,4.25S-2.35,4.25,0,4.25C2.35,4.25,4.25,2.35,4.25,0z"/>
	<path style="&st4;" d="M3.69,0c0-2.04-1.65-3.69-3.69-3.69S-3.68-2.04-3.68,0S-2.04,3.69,0,3.69S3.69,2.04,3.69,0z"/>
</symbol>
<symbol id="cleanup" viewBox="-4.25 -4.25 8.5 8.5">
	<path style="&st9;" d="M-3.01,3.01c1.66,1.66,4.35,1.66,6.01,0c1.66-1.66,1.66-4.35,0-6.01c-1.66-1.66-4.35-1.66-6.01,0C-4.67-1.35-4.67,1.35-3.01,3.01z"/>
	<path style="&st4;" d="M-2.61,2.61c1.44,1.44,3.77,1.44,5.21,0c1.44-1.44,1.44-3.77,0-5.21c-1.44-1.44-3.77-1.44-5.21,0C-4.04-1.17-4.05,1.17-2.61,2.61z"/>
	<path style="&st3;" d="M2.6,2.61c1.44-1.44,1.44-3.77,0-5.21c-1.44-1.44-3.77-1.44-5.21,0"/>
</symbol>
<symbol id="open" viewBox="-4.25 -4.25 8.5 8.5">
	<path style="&st7;" d="M4.25,0c0-2.35-1.9-4.25-4.25-4.25c-2.35,0-4.25,1.9-4.25,4.25S-2.35,4.25,0,4.25C2.35,4.25,4.25,2.35,4.25,0z"/>
	<path style="&st8;" d="M2.83,0c0-1.57-1.27-2.83-2.83-2.83S-2.83-1.57-2.83,0S-1.57,2.83,0,2.83S2.83,1.57,2.83,0z"/>
</symbol>
<symbol id="TODO" viewBox="-4.25 -4.25 8.5 8.5">
	<path style="fill:#CC2222;" d="M4.25,0c0-2.35-1.9-4.25-4.25-4.25c-2.35,0-4.25,1.9-4.25,4.25S-2.35,4.25,0,4.25C2.35,4.25,4.25,2.35,4.25,0z"/>
	<path style="&st3;" d="M3.69,0c0-2.04-1.65-3.69-3.69-3.69S-3.68-2.04-3.68,0S-2.04,3.69,0,3.69S3.69,2.04,3.69,0z"/>
</symbol>
<g id="map">
	<rect width="370.46" height="431.17"/>
	<text id="made_by_nautofon" transform="matrix(1 0 0 1 15.00 410.00)" style="font-family:'ArialMT','Arial',sans-serif;fill:#020202;font-size:9px;">by nautofon</text>
	<path style="&st0;" d="M77.47,0l10.16,14.75c81.55,25.39,184,46.31,282.83,51.61"/>
	<line style="&st0;" x1="338.27" y1="64.1" x2="324.45" y2="227.16"/>
	<polyline style="&st0;" points="87.56,164.04 71.25,225.62 139.25,321.25"/>
	<polyline style="&st0;" points="176.67,185.49 153.75,301.12 152.62,301.62 150.88,304.38 146.5,301.12 143.25,300.75 141.25,302.75 142.12,305.88 140.75,312.62 140.75,318 139.25,321.25 139.12,326.5 140.25,332 143.25,338.88 137.62,342 134.62,351 130.38,355 130.25,361.88 132.62,364.88 130.25,368.38 86.75,362.88"/>
	<polyline style="&st0;" points="50.81,0 52,7.12 70.25,22.88 77.25,22.25 75.5,10 67.22,0"/>
	<polyline style="&st0;" points="89.39,15.3 89,22.75 87.62,33.5 84.62,46 83.5,49.38 82.12,52.25 81.25,52.12 83,34.25 80.5,33.17 77.29,31.25 63.33,20.92 60.5,24 61.25,33.33 60.17,52.67 56.75,67.62 37.62,112.88 28,129.62 28,146.62 22.88,163.5 14.62,178.25 19.25,191.62 16.25,207.88 22.75,227.38 27.75,236.12 25.88,241 30.62,270.75 40.62,295.5 39.62,306.62 40.88,310.25 44.25,315 57.38,320.62 61.38,326.75 69.62,329.5 70.12,339 74.38,342.25 86.12,354.88 86.75,362.88 89.5,382.25 100.75,428.38 103.93,431.18"/>
	<polyline style="&st0;" points="123.15,431.17 121.88,429.12 117.75,419.75 119.25,404.12 118.38,393.88 123.25,386.5 131.5,393.75 137.75,394.12 148.62,404.62 146.62,412.38 149.88,428.62 150.88,431.17"/>
	<polyline style="&st0;" points="127.87,368.07 125.62,371.38 147.88,385.75 185.5,407.62 234,415.17 235.29,406.62 264.67,410.17 269.62,417.62 279.12,426.25 283.8,431.18"/>
	<line style="&st0;" x1="248.23" y1="217.87" x2="220.3" y2="413.04"/>
	<path style="&st0;" d="M28,146.62c47.23,15.27,136.03,38.56,192.86,46.85"/>
	<path style="&st0;" d="M156.95,284.97c69.54,14.18,151.01,23.87,213.51,26.94"/>
	<path style="&st0;" d="M331.36,145.12c-18.79-1.34-74.68-8.56-100.24-12.88l-13.5,80.5c41,7.71,102.37,14.82,137.04,16.75l-4.92,81.2"/>
	<polyline style="&st0;" points="334.01,309.54 326.12,411.12 295.42,408.42 263.42,405.25 263.42,407.17 264.67,410.17"/>
	<line style="&st0;" x1="333.21" y1="319.75" x2="370.46" y2="321.94"/>
	<line style="&st0;" x1="353.44" y1="249.71" x2="370.46" y2="250.69"/>
	<line style="&st0;" x1="327.9" y1="186.56" x2="370.46" y2="189.62"/>
	<polyline style="&st0;" points="332.99,126.44 360.44,128.44 370.46,128.98"/>
	<polyline style="&st0;" points="165.33,35.93 153,89.38 153.75,92.5 152.5,96.5 155,101 157.08,103.17 157.17,106.58 154.75,109.25 148.67,119.5 144.5,122.75 141.75,126.33 140.83,129.83 143.33,132.17 143.42,135.33 141.12,139.88 132.49,175.53"/>
	<polyline style="&st0;" points="178.29,38.93 174.75,60.75 177.08,66.33 176,70.17 177.92,74 180.83,76.5 184.67,86.75 187.75,90.67 191.67,91.83 187,100.67 187,106.08 185.25,107.42 184.25,112.42 186.33,114.92 189.75,113.25 191.75,110.67 193.25,111.58 194.42,114.67 194.58,121.25 196.75,124.42 196.5,129.42 197.17,131.25 200.08,132.42 202.75,141.17 205.92,139.08 210.42,140.58 211.42,138.92 218.08,141.42 222.33,141.5 225.33,137.83 226.92,138.92 227.25,141.25 229.32,143.01"/>
	<polyline style="&st0;" points="57.53,64.23 64.38,66.25 67.92,69.75 71.17,72 72,75.75 71.83,82.42 77.17,85.08 87.5,84.92 91.67,86.92 93.67,88.83 98.5,88.75 100.67,87.92 106.25,90.17 112.25,89.42 115.33,88.5 118.67,90.42 124.17,89.5 152.5,96.5"/>
</g>
<g id="legend">
	<rect x="304.73" y="9.44" style="&st10;" width="55.54" height="41.12"/>
	<text transform="matrix(1 0 0 1 319.5923 44.5608)" style="&st1; &st5; &st2;">todo</text>
	<use xlink:href="#TODO" width="8.5" height="8.5" id="legend-unkown_1_" x="-4.25" y="-4.25" transform="matrix(1 0 0 -1 312.729 42.2266)" style="overflow:visible;"/>
	<text transform="matrix(1 0 0 1 319.5923 32.3207)" style="&st1; &st5; &st2;">cleanup</text>
	<use xlink:href="#cleanup" width="8.5" height="8.5" id="legend-some_1_" x="-4.25" y="-4.25" transform="matrix(1 0 0 -1 312.729 30.0874)" style="overflow:visible;"/>
	<text transform="matrix(1 0 0 1 319.5933 20.0199)" style="&st1; &st5; &st2;">complete</text>
	<use xlink:href="#all" width="8.5" height="8.5" id="legend-all_1_" x="-4.25" y="-4.25" transform="matrix(1 0 0 -1 312.729 17.7852)" style="overflow:visible;"/>
</g>
<g id="data">
	<g id="AZ">
		<use xlink:href="#all" width="8.5" height="8.5" id="camp_verde" x="-4.25" y="-4.25" transform="matrix(1 0 0 -1 181.292 343.25)" style="overflow:visible;"/>
		<use xlink:href="#all" width="8.5" height="8.5" id="clifton" x="-4.25" y="-4.25" transform="matrix(1 0 0 -1 217.8335 375.834)" style="overflow:visible;"/>
		<use xlink:href="#all" width="8.5" height="8.5" id="ehrenberg" x="-4.25" y="-4.25" transform="matrix(1 0 0 -1 140.6665 352.334)" style="overflow:visible;"/>
		<use xlink:href="#all" width="8.5" height="8.5" id="flagstaff" x="-4.25" y="-4.25" transform="matrix(1 0 0 -1 189.417 326)" style="overflow:visible;"/>
		<use xlink:href="#all" width="8.5" height="8.5" id="g_canyon_vlg" x="-4.25" y="-4.25" transform="matrix(1 0 0 -1 182.542 311.125)" style="overflow:visible;"/>
		<use xlink:href="#all" width="8.5" height="8.5" id="holbrook" x="-4.25" y="-4.25" transform="matrix(1 0 0 -1 216.084 338.5)" style="overflow:visible;"/>
		<use xlink:href="#all" width="8.5" height="8.5" id="kayenta" x="-4.25" y="-4.25" transform="matrix(1 0 0 -1 215.0835 303.708)" style="overflow:visible;"/>
		<use xlink:href="#all" width="8.5" height="8.5" id="kingman" x="-4.25" y="-4.25" transform="matrix(1 0 0 -1 151.167 321)" style="overflow:visible;"/>
		<use xlink:href="#all" width="8.5" height="8.5" id="nogales" x="-4.25" y="-4.25" transform="matrix(1 0 0 -1 187.6665 401.667)" style="overflow:visible;"/>
		<use xlink:href="#all" width="8.5" height="8.5" id="page" x="-4.25" y="-4.25" transform="matrix(1 0 0 -1 197.5005 298.667)" style="overflow:visible;"/>
		<use xlink:href="#all" width="8.5" height="8.5" id="phoenix" x="-4.25" y="-4.25" transform="matrix(1 0 0 -1 171.292 362.125)" style="overflow:visible;"/>
		<use xlink:href="#all" width="8.5" height="8.5" id="san_simon" x="-4.25" y="-4.25" transform="matrix(1 0 0 -1 217.4585 392.583)" style="overflow:visible;"/>
		<use xlink:href="#all" width="8.5" height="8.5" id="show_low" x="-4.25" y="-4.25" transform="matrix(1 0 0 -1 210.917 352.25)" style="overflow:visible;"/>
		<use xlink:href="#all" width="8.5" height="8.5" id="sierra_vista" x="-4.25" y="-4.25" transform="matrix(1 0 0 -1 200.6665 402.167)" style="overflow:visible;"/>
		<use xlink:href="#all" width="8.5" height="8.5" id="tucson" x="-4.25" y="-4.25" transform="matrix(1 0 0 -1 190 387)" style="overflow:visible;"/>
		<use xlink:href="#all" width="8.5" height="8.5" id="yuma" x="-4.25" y="-4.25" transform="matrix(1 0 0 -1 136 370.667)" style="overflow:visible;"/>
	</g>
	<g id="CA">
		<use xlink:href="#open" width="8.5" height="8.5" id="bakersfield" x="-4.25" y="-4.25" transform="matrix(1 0 0 -1 70.875 298.874)" style="overflow:visible;"/>
		<use xlink:href="#open" width="8.5" height="8.5" id="barstow" x="-4.25" y="-4.25" transform="matrix(1 0 0 -1 98.125 317.458)" style="overflow:visible;"/>
		<use xlink:href="#open" width="8.5" height="8.5" id="carlsbad" x="-4.25" y="-4.25" transform="matrix(1 0 0 -1 86.1655 345.834)" style="overflow:visible;"/>
		<use xlink:href="#open" width="8.5" height="8.5" id="el_centro" x="-4.25" y="-4.25" transform="matrix(1 0 0 -1 116.499 360.668)" style="overflow:visible;"/>
		<use xlink:href="#open" width="8.5" height="8.5" id="eureka" x="-4.25" y="-4.25" transform="matrix(1 0 0 -1 22.7495 175.875)" style="overflow:visible;"/>
		<use xlink:href="#open" width="8.5" height="8.5" id="fresno" x="-4.25" y="-4.25" transform="matrix(1 0 0 -1 68.042 273.2905)" style="overflow:visible;"/>
		<use xlink:href="#open" width="8.5" height="8.5" id="hilt" x="-4.25" y="-4.25" transform="matrix(1 0 0 -1 49.9165 160.5835)" style="overflow:visible;"/>
		<use xlink:href="#open" width="8.5" height="8.5" id="huron" x="-4.25" y="-4.25" transform="matrix(1 0 0 -1 53.542 280.5405)" style="overflow:visible;"/>
		<use xlink:href="#open" width="8.5" height="8.5" id="los_angeles" x="-4.25" y="-4.25" transform="matrix(1 0 0 -1 75.6235 333.668)" style="overflow:visible;"/>
		<use xlink:href="#open" width="8.5" height="8.5" id="oakdale" x="-4.25" y="-4.25" transform="matrix(1 0 0 -1 54.7495 248.5)" style="overflow:visible;"/>
		<use xlink:href="#open" width="8.5" height="8.5" id="oakland" x="-4.25" y="-4.25" transform="matrix(1 0 0 -1 40.1245 243.75)" style="overflow:visible;"/>
		<use xlink:href="#open" width="8.5" height="8.5" id="oxnard" x="-4.25" y="-4.25" transform="matrix(1 0 0 -1 64.1675 320.292)" style="overflow:visible;"/>
		<use xlink:href="#open" width="8.5" height="8.5" id="redding" x="-4.25" y="-4.25" transform="matrix(1 0 0 -1 47.4995 180.5)" style="overflow:visible;"/>
		<use xlink:href="#open" width="8.5" height="8.5" id="sacramento" x="-4.25" y="-4.25" transform="matrix(1 0 0 -1 45.124 222.2095)" style="overflow:visible;"/>
		<use xlink:href="#open" width="8.5" height="8.5" id="san_diego" x="-4.25" y="-4.25" transform="matrix(1 0 0 -1 92.3325 357.668)" style="overflow:visible;"/>
		<use xlink:href="#open" width="8.5" height="8.5" id="san_francisc" x="-4.25" y="-4.25" transform="matrix(1 0 0 -1 33.9995 236.5)" style="overflow:visible;"/>
		<use xlink:href="#open" width="8.5" height="8.5" id="santa_cruz" x="-4.25" y="-4.25" transform="matrix(1 0 0 -1 34.3745 257.75)" style="overflow:visible;"/>
		<use xlink:href="#open" width="8.5" height="8.5" id="santa_maria" x="-4.25" y="-4.25" transform="matrix(1 0 0 -1 45.6245 304.75)" style="overflow:visible;"/>
		<use xlink:href="#open" width="8.5" height="8.5" id="stockton" x="-4.25" y="-4.25" transform="matrix(1 0 0 -1 49.874 237.7095)" style="overflow:visible;"/>
		<use xlink:href="#open" width="8.5" height="8.5" id="truckee" x="-4.25" y="-4.25" transform="matrix(1 0 0 -1 63.9995 213)" style="overflow:visible;"/>
		<use xlink:href="#open" width="8.5" height="8.5" id="ukiah" x="-4.25" y="-4.25" transform="matrix(1 0 0 -1 25.9995 205.25)" style="overflow:visible;"/>
	</g>
	<g id="CO">
		<use xlink:href="#all" width="8.5" height="8.5" id="alamosa" x="-4.25" y="-4.25" transform="matrix(1 0 0 -1 288.4165 296.1221)" style="overflow:visible;"/>
		<use xlink:href="#all" width="8.5" height="8.5" id="burlington" x="-4.25" y="-4.25" transform="matrix(1 0 0 -1 346.667 263.4971)" style="overflow:visible;"/>
		<use xlink:href="#all" width="8.5" height="8.5" id="colorado_spr" x="-4.25" y="-4.25" transform="matrix(1 0 0 -1 310.6665 268.7886)" style="overflow:visible;"/>
		<use xlink:href="#all" width="8.5" height="8.5" id="denver" x="-4.25" y="-4.25" transform="matrix(1 0 0 -1 308.4165 255.1221)" style="overflow:visible;"/>
		<use xlink:href="#all" width="8.5" height="8.5" id="durango" x="-4.25" y="-4.25" transform="matrix(1 0 0 -1 256.25 295.2886)" style="overflow:visible;"/>
		<use xlink:href="#cleanup" width="8.5" height="8.5" id="fort_collins" x="-4.25" y="-4.25" transform="matrix(1 0 0 -1 306.833 233.7886)" style="overflow:visible;"/>
		<use xlink:href="#all" width="8.5" height="8.5" id="grand_juncti" x="-4.25" y="-4.25" transform="matrix(1 0 0 -1 252.916 261.1221)" style="overflow:visible;"/>
		<use xlink:href="#all" width="8.5" height="8.5" id="lamar" x="-4.25" y="-4.25" transform="matrix(1 0 0 -1 341.833 288.3721)" style="overflow:visible;"/>
		<use xlink:href="#all" width="8.5" height="8.5" id="montrose" x="-4.25" y="-4.25" transform="matrix(1 0 0 -1 259.833 271.7051)" style="overflow:visible;"/>
		<use xlink:href="#all" width="8.5" height="8.5" id="pueblo" x="-4.25" y="-4.25" transform="matrix(1 0 0 -1 307.333 281.3721)" style="overflow:visible;"/>
		<use xlink:href="#all" width="8.5" height="8.5" id="rangely" x="-4.25" y="-4.25" transform="matrix(1 0 0 -1 251.333 237.1221)" style="overflow:visible;"/>
		<use xlink:href="#all" width="8.5" height="8.5" id="steamboat_sp" x="-4.25" y="-4.25" transform="matrix(1 0 0 -1 280.7495 233.8721)" style="overflow:visible;"/>
		<use xlink:href="#all" width="8.5" height="8.5" id="sterling" x="-4.25" y="-4.25" transform="matrix(1 0 0 -1 331.583 237.2886)" style="overflow:visible;"/>
	</g>
	<g id="ID">
		<use xlink:href="#all" width="8.5" height="8.5" id="boise" x="-4.25" y="-4.25" transform="matrix(1 0 0 -1 156.8745 145.9141)" style="overflow:visible;"/>
		<use xlink:href="#all" width="8.5" height="8.5" id="coeur_dalene" x="-4.25" y="-4.25" transform="matrix(1 0 0 -1 165.3745 65.1641)" style="overflow:visible;"/>
		<use xlink:href="#all" width="8.5" height="8.5" id="grangeville" x="-4.25" y="-4.25" transform="matrix(1 0 0 -1 167.833 100.7056)" style="overflow:visible;"/>
		<use xlink:href="#all" width="8.5" height="8.5" id="idaho_falls" x="-4.25" y="-4.25" transform="matrix(1 0 0 -1 213.6245 156.4141)" style="overflow:visible;"/>
		<use xlink:href="#all" width="8.5" height="8.5" id="ketchum" x="-4.25" y="-4.25" transform="matrix(1 0 0 -1 180.6245 148.0391)" style="overflow:visible;"/>
		<use xlink:href="#all" width="8.5" height="8.5" id="lewiston" x="-4.25" y="-4.25" transform="matrix(1 0 0 -1 159.4995 88.2891)" style="overflow:visible;"/>
		<use xlink:href="#all" width="8.5" height="8.5" id="nampa" x="-4.25" y="-4.25" transform="matrix(1 0 0 -1 146.7495 147.4556)" style="overflow:visible;"/>
		<use xlink:href="#all" width="8.5" height="8.5" id="pocatello" x="-4.25" y="-4.25" transform="matrix(1 0 0 -1 202.2495 171.4141)" style="overflow:visible;"/>
		<use xlink:href="#all" width="8.5" height="8.5" id="salmon" x="-4.25" y="-4.25" transform="matrix(1 0 0 -1 190.2075 125.5391)" style="overflow:visible;"/>
		<use xlink:href="#all" width="8.5" height="8.5" id="sandpoint" x="-4.25" y="-4.25" transform="matrix(1 0 0 -1 169.6245 47.4141)" style="overflow:visible;"/>
		<use xlink:href="#all" width="8.5" height="8.5" id="twin_falls" x="-4.25" y="-4.25" transform="matrix(1 0 0 -1 175.7495 171.1641)" style="overflow:visible;"/>
	</g>
	<g id="MT">
		<use xlink:href="#cleanup" width="8.5" height="8.5" id="billings" x="-4.25" y="-4.25" transform="matrix(1 0 0 -1 273.4985 120.168)" style="overflow:visible;"/>
		<use xlink:href="#cleanup" width="8.5" height="8.5" id="bozeman" x="-4.25" y="-4.25" transform="matrix(1 0 0 -1 231.998 118.8345)" style="overflow:visible;"/>
		<use xlink:href="#cleanup" width="8.5" height="8.5" id="butte" x="-4.25" y="-4.25" transform="matrix(1 0 0 -1 213.8315 110.168)" style="overflow:visible;"/>
		<use xlink:href="#open" width="8.5" height="8.5" id="glasgow_mt" x="-4.25" y="-4.25" transform="matrix(1 0 0 -1 302.4985 76.501)" style="overflow:visible;"/>
		<use xlink:href="#open" width="8.5" height="8.5" id="glendive" x="-4.25" y="-4.25" transform="matrix(1 0 0 -1 324.332 103.168)" style="overflow:visible;"/>
		<use xlink:href="#cleanup" width="8.5" height="8.5" id="great_falls" x="-4.25" y="-4.25" transform="matrix(1 0 0 -1 238.9985 76.5015)" style="overflow:visible;"/>
		<use xlink:href="#cleanup" width="8.5" height="8.5" id="havre" x="-4.25" y="-4.25" transform="matrix(1 0 0 -1 263.165 64.3345)" style="overflow:visible;"/>
		<use xlink:href="#all" width="8.5" height="8.5" id="helena" x="-4.25" y="-4.25" transform="matrix(1 0 0 -1 226.1655 96.668)" style="overflow:visible;"/>
		<use xlink:href="#all" width="8.5" height="8.5" id="kalispell" x="-4.25" y="-4.25" transform="matrix(1 0 0 -1 196.165 57.168)" style="overflow:visible;"/>
		<use xlink:href="#all" width="8.5" height="8.5" id="laurel" x="-4.25" y="-4.25" transform="matrix(1 0 0 -1 265.665 126.6675)" style="overflow:visible;"/>
		<use xlink:href="#cleanup" width="8.5" height="8.5" id="lewistown" x="-4.25" y="-4.25" transform="matrix(1 0 0 -1 260.832 93.835)" style="overflow:visible;"/>
		<use xlink:href="#open" width="8.5" height="8.5" id="miles_city" x="-4.25" y="-4.25" transform="matrix(1 0 0 -1 309.332 110.502)" style="overflow:visible;"/>
		<use xlink:href="#cleanup" width="8.5" height="8.5" id="missoula" x="-4.25" y="-4.25" transform="matrix(1 0 0 -1 195.332 83.8345)" style="overflow:visible;"/>
		<use xlink:href="#open" width="8.5" height="8.5" id="sidney" x="-4.25" y="-4.25" transform="matrix(1 0 0 -1 329.998 89.1675)" style="overflow:visible;"/>
		<use xlink:href="#cleanup" width="8.5" height="8.5" id="thompson_f" x="-4.25" y="-4.25" transform="matrix(1 0 0 -1 185.9985 69.8345)" style="overflow:visible;"/>
	</g>
	<g id="NM">
		<use xlink:href="#all" width="8.5" height="8.5" id="alamogordo" x="-4.25" y="-4.25" transform="matrix(1 0 0 -1 278.1665 387.9561)" style="overflow:visible;"/>
		<use xlink:href="#all" width="8.5" height="8.5" id="albuquerque" x="-4.25" y="-4.25" transform="matrix(1 0 0 -1 268.25 344.0381)" style="overflow:visible;"/>
		<use xlink:href="#open" width="8.5" height="8.5" id="artesia" x="-4.25" y="-4.25" transform="matrix(1 0 0 -1 304.6665 393.873)" style="overflow:visible;"/>
		<use xlink:href="#open" width="8.5" height="8.5" id="carlsbad_nm" x="-4.25" y="-4.25" transform="matrix(1 0 0 -1 310.0835 402.79)" style="overflow:visible;"/>
		<use xlink:href="#open" width="8.5" height="8.5" id="clovis" x="-4.25" y="-4.25" transform="matrix(1 0 0 -1 323.6665 363.7891)" style="overflow:visible;"/>
		<use xlink:href="#all" width="8.5" height="8.5" id="farmington" x="-4.25" y="-4.25" transform="matrix(1 0 0 -1 249.916 306.5381)" style="overflow:visible;"/>
		<use xlink:href="#open" width="8.5" height="8.5" id="gallup" x="-4.25" y="-4.25" transform="matrix(1 0 0 -1 238.2495 329.8721)" style="overflow:visible;"/>
		<use xlink:href="#open" width="8.5" height="8.5" id="hobbs" x="-4.25" y="-4.25" transform="matrix(1 0 0 -1 321.25 396.123)" style="overflow:visible;"/>
		<use xlink:href="#open" width="8.5" height="8.5" id="las_cruces" x="-4.25" y="-4.25" transform="matrix(1 0 0 -1 261.4165 399.2061)" style="overflow:visible;"/>
		<use xlink:href="#all" width="8.5" height="8.5" id="raton" x="-4.25" y="-4.25" transform="matrix(1 0 0 -1 310.083 313.9551)" style="overflow:visible;"/>
		<use xlink:href="#open" width="8.5" height="8.5" id="roswell" x="-4.25" y="-4.25" transform="matrix(1 0 0 -1 303.75 381.7891)" style="overflow:visible;"/>
		<use xlink:href="#open" width="8.5" height="8.5" id="santa_fe" x="-4.25" y="-4.25" transform="matrix(1 0 0 -1 285.9995 331.9551)" style="overflow:visible;"/>
		<use xlink:href="#open" width="8.5" height="8.5" id="socorro" x="-4.25" y="-4.25" transform="matrix(1 0 0 -1 264.6665 362.7051)" style="overflow:visible;"/>
		<use xlink:href="#all" width="8.5" height="8.5" id="tucumcari" x="-4.25" y="-4.25" transform="matrix(1 0 0 -1 319.75 346.6221)" style="overflow:visible;"/>
	</g>
	<g id="NV">
		<use xlink:href="#open" width="8.5" height="8.5" id="carson_city" x="-4.25" y="-4.25" transform="matrix(1 0 0 -1 83.165 231.833)" style="overflow:visible;"/>
		<use xlink:href="#open" width="8.5" height="8.5" id="elko" x="-4.25" y="-4.25" transform="matrix(1 0 0 -1 147.9995 203.125)" style="overflow:visible;"/>
		<use xlink:href="#open" width="8.5" height="8.5" id="ely" x="-4.25" y="-4.25" transform="matrix(1 0 0 -1 152.312 237.4375)" style="overflow:visible;"/>
		<use xlink:href="#open" width="8.5" height="8.5" id="jackpot" x="-4.25" y="-4.25" transform="matrix(1 0 0 -1 164.4985 189.1665)" style="overflow:visible;"/>
		<use xlink:href="#all" width="8.5" height="8.5" id="las_vegas" x="-4.25" y="-4.25" transform="matrix(1 0 0 -1 141.4985 294.833)" style="overflow:visible;"/>
		<use xlink:href="#open" width="8.5" height="8.5" id="pioche" x="-4.25" y="-4.25" transform="matrix(1 0 0 -1 155.4995 257.1875)" style="overflow:visible;"/>
		<use xlink:href="#all" width="8.5" height="8.5" id="primm" x="-4.25" y="-4.25" transform="matrix(1 0 0 -1 135.4985 305.5)" style="overflow:visible;"/>
		<use xlink:href="#open" width="8.5" height="8.5" id="reno" x="-4.25" y="-4.25" transform="matrix(1 0 0 -1 80.332 215)" style="overflow:visible;"/>
		<use xlink:href="#open" width="8.5" height="8.5" id="tonopah" x="-4.25" y="-4.25" transform="matrix(1 0 0 -1 109.4995 253.75)" style="overflow:visible;"/>
		<use xlink:href="#open" width="8.5" height="8.5" id="winnemucca" x="-4.25" y="-4.25" transform="matrix(1 0 0 -1 117.9995 194.125)" style="overflow:visible;"/>
	</g>
	<g id="OR">
		<use xlink:href="#all" width="8.5" height="8.5" id="astoria" x="-4.25" y="-4.25" transform="matrix(1 0 0 -1 61.3979 71.917)" style="overflow:visible;"/>
		<use xlink:href="#open" width="8.5" height="8.5" id="bend" x="-4.25" y="-4.25" transform="matrix(1 0 0 -1 83.5645 119.375)" style="overflow:visible;"/>
		<use xlink:href="#open" width="8.5" height="8.5" id="burns" x="-4.25" y="-4.25" transform="matrix(1 0 0 -1 112.0645 136.875)" style="overflow:visible;"/>
		<use xlink:href="#open" width="8.5" height="8.5" id="coos_bay" x="-4.25" y="-4.25" transform="matrix(1 0 0 -1 40.231 120.708)" style="overflow:visible;"/>
		<use xlink:href="#open" width="8.5" height="8.5" id="eugene" x="-4.25" y="-4.25" transform="matrix(1 0 0 -1 59.9995 110.9995)" style="overflow:visible;"/>
		<use xlink:href="#all" width="8.5" height="8.5" id="klamath_f" x="-4.25" y="-4.25" transform="matrix(1 0 0 -1 66.4995 149.833)" style="overflow:visible;"/>
		<use xlink:href="#open" width="8.5" height="8.5" id="lakeview" x="-4.25" y="-4.25" transform="matrix(1 0 0 -1 86.1665 157.5)" style="overflow:visible;"/>
		<use xlink:href="#open" width="8.5" height="8.5" id="medford" x="-4.25" y="-4.25" transform="matrix(1 0 0 -1 48.4995 142.333)" style="overflow:visible;"/>
		<use xlink:href="#open" width="8.5" height="8.5" id="newport" x="-4.25" y="-4.25" transform="matrix(1 0 0 -1 49.333 100.4995)" style="overflow:visible;"/>
		<use xlink:href="#all" width="8.5" height="8.5" id="ontario" x="-4.25" y="-4.25" transform="matrix(1 0 0 -1 136.9995 134.6665)" style="overflow:visible;"/>
		<use xlink:href="#all" width="8.5" height="8.5" id="pendleton" x="-4.25" y="-4.25" transform="matrix(1 0 0 -1 123.0645 97.5)" style="overflow:visible;"/>
		<use xlink:href="#all" width="8.5" height="8.5" id="portland" x="-4.25" y="-4.25" transform="matrix(1 0 0 -1 68.2495 87.1245)" style="overflow:visible;"/>
		<use xlink:href="#open" width="8.5" height="8.5" id="salem" x="-4.25" y="-4.25" transform="matrix(1 0 0 -1 63.7495 97.2495)" style="overflow:visible;"/>
		<use xlink:href="#open" width="8.5" height="8.5" id="the_dalles" x="-4.25" y="-4.25" transform="matrix(1 0 0 -1 88.833 92.833)" style="overflow:visible;"/>
	</g>
	<g id="UT">
		<use xlink:href="#all" width="8.5" height="8.5" id="cedar_city" x="-4.25" y="-4.25" transform="matrix(1 0 0 -1 178.2495 269.3726)" style="overflow:visible;"/>
		<use xlink:href="#all" width="8.5" height="8.5" id="logan" x="-4.25" y="-4.25" transform="matrix(1 0 0 -1 209.9995 197.8721)" style="overflow:visible;"/>
		<use xlink:href="#all" width="8.5" height="8.5" id="moab" x="-4.25" y="-4.25" transform="matrix(1 0 0 -1 235.2495 265.1226)" style="overflow:visible;"/>
		<use xlink:href="#all" width="8.5" height="8.5" id="ogden" x="-4.25" y="-4.25" transform="matrix(1 0 0 -1 203.5005 206.2056)" style="overflow:visible;"/>
		<use xlink:href="#cleanup" width="8.5" height="8.5" id="price" x="-4.25" y="-4.25" transform="matrix(1 0 0 -1 221.7495 240.7056)" style="overflow:visible;"/>
		<use xlink:href="#all" width="8.5" height="8.5" id="provo" x="-4.25" y="-4.25" transform="matrix(1 0 0 -1 207.9165 226.7056)" style="overflow:visible;"/>
		<use xlink:href="#all" width="8.5" height="8.5" id="salina" x="-4.25" y="-4.25" transform="matrix(1 0 0 -1 200.166 249.6226)" style="overflow:visible;"/>
		<use xlink:href="#all" width="8.5" height="8.5" id="salt_lake" x="-4.25" y="-4.25" transform="matrix(1 0 0 -1 201.9165 215.7061)" style="overflow:visible;"/>
		<use xlink:href="#cleanup" width="8.5" height="8.5" id="st_george" x="-4.25" y="-4.25" transform="matrix(1 0 0 -1 166.833 281.0391)" style="overflow:visible;"/>
		<use xlink:href="#all" width="8.5" height="8.5" id="vernal" x="-4.25" y="-4.25" transform="matrix(1 0 0 -1 240.7495 227.7056)" style="overflow:visible;"/>
	</g>
	<g id="WA">
		<use xlink:href="#all" width="8.5" height="8.5" id="aberdeen_wa" x="-4.25" y="-4.25" transform="matrix(1 0 0 -1 65.8745 53.4146)" style="overflow:visible;"/>
		<use xlink:href="#all" width="8.5" height="8.5" id="bellingham" x="-4.25" y="-4.25" transform="matrix(1 0 0 -1 94.9995 23.2896)" style="overflow:visible;"/>
		<use xlink:href="#all" width="8.5" height="8.5" id="colville" x="-4.25" y="-4.25" transform="matrix(1 0 0 -1 151.9995 43.0396)" style="overflow:visible;"/>
		<use xlink:href="#all" width="8.5" height="8.5" id="everett" x="-4.25" y="-4.25" transform="matrix(1 0 0 -1 92.9995 37.2896)" style="overflow:visible;"/>
		<use xlink:href="#all" width="8.5" height="8.5" id="grand_coulee" x="-4.25" y="-4.25" transform="matrix(1 0 0 -1 134.8745 50.2896)" style="overflow:visible;"/>
		<use xlink:href="#all" width="8.5" height="8.5" id="kennewick" x="-4.25" y="-4.25" transform="matrix(1 0 0 -1 123.2495 83.2896)" style="overflow:visible;"/>
		<use xlink:href="#all" width="8.5" height="8.5" id="longview" x="-4.25" y="-4.25" transform="matrix(1 0 0 -1 72.9995 66.2896)" style="overflow:visible;"/>
		<use xlink:href="#all" width="8.5" height="8.5" id="olympia" x="-4.25" y="-4.25" transform="matrix(1 0 0 -1 76.9995 56.5396)" style="overflow:visible;"/>
		<use xlink:href="#all" width="8.5" height="8.5" id="omak" x="-4.25" y="-4.25" transform="matrix(1 0 0 -1 129.1245 40.4146)" style="overflow:visible;"/>
		<use xlink:href="#all" width="8.5" height="8.5" id="port_angeles" x="-4.25" y="-4.25" transform="matrix(1 0 0 -1 72.2495 35.0396)" style="overflow:visible;"/>
		<use xlink:href="#all" width="8.5" height="8.5" id="seattle" x="-4.25" y="-4.25" transform="matrix(1 0 0 -1 90.3745 47.1646)" style="overflow:visible;"/>
		<use xlink:href="#all" width="8.5" height="8.5" id="spokane" x="-4.25" y="-4.25" transform="matrix(1 0 0 -1 153.6245 60.5396)" style="overflow:visible;"/>
		<use xlink:href="#all" width="8.5" height="8.5" id="tacoma" x="-4.25" y="-4.25" transform="matrix(1 0 0 -1 86.8745 56.4146)" style="overflow:visible;"/>
		<use xlink:href="#all" width="8.5" height="8.5" id="vancouver" x="-4.25" y="-4.25" transform="matrix(1 0 0 -1 77.9995 74.6646)" style="overflow:visible;"/>
		<use xlink:href="#all" width="8.5" height="8.5" id="wenatchee" x="-4.25" y="-4.25" transform="matrix(1 0 0 -1 113.4995 58.7896)" style="overflow:visible;"/>
		<use xlink:href="#all" width="8.5" height="8.5" id="yakima" x="-4.25" y="-4.25" transform="matrix(1 0 0 -1 107.1245 73.2896)" style="overflow:visible;"/>
	</g>
	<g id="WY">
		<use xlink:href="#all" width="8.5" height="8.5" id="casper" x="-4.25" y="-4.25" transform="matrix(1 0 0 -1 294.8745 184.875)" style="overflow:visible;"/>
		<use xlink:href="#all" width="8.5" height="8.5" id="cheyenne" x="-4.25" y="-4.25" transform="matrix(1 0 0 -1 319.1245 216.75)" style="overflow:visible;"/>
		<use xlink:href="#cleanup" width="8.5" height="8.5" id="cody" x="-4.25" y="-4.25" transform="matrix(1 0 0 -1 261.125 143.375)" style="overflow:visible;"/>
		<use xlink:href="#all" width="8.5" height="8.5" id="evanston" x="-4.25" y="-4.25" transform="matrix(1 0 0 -1 225.7495 206.125)" style="overflow:visible;"/>
		<use xlink:href="#all" width="8.5" height="8.5" id="gillette" x="-4.25" y="-4.25" transform="matrix(1 0 0 -1 312.2495 158.25)" style="overflow:visible;"/>
		<use xlink:href="#all" width="8.5" height="8.5" id="jackson" x="-4.25" y="-4.25" transform="matrix(1 0 0 -1 232.6245 162.75)" style="overflow:visible;"/>
		<use xlink:href="#all" width="8.5" height="8.5" id="laramie" x="-4.25" y="-4.25" transform="matrix(1 0 0 -1 297.2495 210.375)" style="overflow:visible;"/>
		<use xlink:href="#all" width="8.5" height="8.5" id="rawlins" x="-4.25" y="-4.25" transform="matrix(1 0 0 -1 276.6245 200.75)" style="overflow:visible;"/>
		<use xlink:href="#all" width="8.5" height="8.5" id="riverton" x="-4.25" y="-4.25" transform="matrix(1 0 0 -1 265.1245 175.375)" style="overflow:visible;"/>
		<use xlink:href="#all" width="8.5" height="8.5" id="rock_springs" x="-4.25" y="-4.25" transform="matrix(1 0 0 -1 253.2495 205.875)" style="overflow:visible;"/>
		<use xlink:href="#all" width="8.5" height="8.5" id="sheridan" x="-4.25" y="-4.25" transform="matrix(1 0 0 -1 290.9995 147.625)" style="overflow:visible;"/>
	</g>
</g>
</svg>
